HIERARCHY
ROOT Hips
{
	OFFSET 0.000000 0.000000 0.000000
	CHANNELS 6 Xposition Yposition Zposition Zrotation Yrotation Xrotation 
	JOINT LHipJoint
	{
		OFFSET 0.000000 0.000000 0.000000
		CHANNELS 3 Zrotation Yrotation Xrotation
		JOINT LeftUpLeg
		{
			OFFSET 1.363060 -1.794630 0.839290
			CHANNELS 3 Zrotation Yrotation Xrotation
			JOINT LeftLeg
			{
				OFFSET 2.448110 -6.726130 0.000000
				CHANNELS 3 Zrotation Yrotation Xrotation
				JOINT LeftFoot
				{
					OFFSET 2.562200 -7.039590 0.000000
					CHANNELS 3 Zrotation Yrotation Xrotation
					JOINT LeftToeBase
					{
						OFFSET 0.157640 -0.433110 2.322550
						CHANNELS 3 Zrotation Yrotation Xrotation
						End Site
						{
							OFFSET 0.000000 0.000000 0.000000
						}
					}
				}
			}
		}
	}
	JOINT RHipJoint
	{
		OFFSET 0.000000 0.000000 0.000000
		CHANNELS 3 Zrotation Yrotation Xrotation
		JOINT RightUpLeg
		{
			OFFSET -1.305520 -1.794630 0.839290
			CHANNELS 3 Zrotation Yrotation Xrotation
			JOINT RightLeg
			{
				OFFSET -2.542530 -6.985550 0.000000
				CHANNELS 3 Zrotation Yrotation Xrotation
				JOINT RightFoot
				{
					OFFSET -2.568260 -7.056230 0.000000
					CHANNELS 3 Zrotation Yrotation Xrotation
					JOINT RightToeBase
					{
						OFFSET -0.164730 -0.452590 2.363150
						CHANNELS 3 Zrotation Yrotation Xrotation
						End Site
						{
							OFFSET 0.000000 0.000000 0.000000
						}
					}
				}
			}
		}
	}
}
MOTION
Frames: 34
Frame Time: 0.008333
7.368415 16.811807 0.860405 14.618004 56.239300 32.580151 -11.377673 5.567810 0.397171 -8.525733 14.856970 -8.815455 -1.077330 1.494021 29.980199 0.495475 -6.549187 23.111066 -3.329200 0.000001 -69.185400 8.324450 -1.672494 4.796367 16.189925 7.476062 -36.417829 2.601811 -0.287224 24.328111 -2.318850 -4.141420 -19.486873 -178.930700 -0.000000 -20.558401
7.534488 16.793713 0.959564 14.523638 56.193106 32.306752 -11.474694 5.520176 0.385540 -7.916287 14.894066 -9.495649 -0.925217 1.573172 32.218733 0.579972 -6.453624 23.421042 -3.369300 0.000000 -65.806800 8.344430 -1.684107 4.567196 16.348701 6.966620 -36.124485 2.603964 -0.474490 26.205270 -2.303569 -3.715193 -20.685016 -178.805200 -0.000001 -20.935101
7.694962 16.784728 1.061332 14.388359 56.182708 31.971782 -11.559921 5.448437 0.336945 -7.272128 14.985277 -10.233391 -0.778298 1.653221 34.446639 0.678246 -5.844371 23.565093 -3.155000 -0.000001 -62.587800 8.359451 -1.702323 4.320655 16.571949 6.338065 -35.494832 2.647174 -0.584055 27.397681 -2.252230 -3.182206 -21.669817 -178.739400 -0.000000 -20.777900
7.850135 16.783960 1.166592 14.229996 56.189541 31.609923 -11.625978 5.351744 0.260218 -6.632624 15.089476 -11.032653 -0.638686 1.734259 36.636013 0.788846 -4.741273 23.526062 -2.691700 -0.000000 -59.625001 8.368960 -1.725341 4.074222 16.828651 5.655529 -34.570418 2.719511 -0.618897 27.922023 -2.184372 -2.619404 -22.446125 -178.720800 -0.000000 -20.246900
8.000396 16.790160 1.276457 14.092240 56.195471 31.279042 -11.663954 5.231883 0.168486 -6.052714 15.156555 -11.897284 -0.508407 1.815122 38.758521 0.909750 -3.213404 23.287064 -2.013900 -0.000000 -56.857600 8.380458 -1.748407 3.842527 17.071542 4.967526 -33.416595 2.805906 -0.587367 27.846833 -2.114047 -2.091904 -23.020117 -178.733800 0.000000 -19.479700
8.146312 16.802131 1.391316 13.994823 56.188252 31.008295 -11.671102 5.091012 0.072149 -5.561259 15.147502 -12.820493 -0.388654 1.894093 40.781967 1.039374 -1.379715 22.855025 -1.188300 -0.000000 -54.362500 8.398383 -1.767192 3.636242 17.270836 4.326622 -32.080400 2.891638 -0.498284 27.249083 -2.053815 -1.667378 -23.395910 -178.759100 0.000000 -18.650400
8.288568 16.818682 1.511527 13.966100 56.158668 30.836698 -11.645178 4.933620 -0.016691 -5.189787 15.024796 -13.801498 -0.280341 1.968679 42.680053 1.173908 0.615980 22.242338 -0.295200 0.000000 -52.070500 8.430490 -1.777702 3.464653 17.393841 3.772605 -30.622629 2.962720 -0.363329 26.231166 -2.011034 -1.391519 -23.583502 -178.780900 0.000000 -17.935400
8.427942 16.838827 1.636871 14.015605 56.101744 30.782881 -11.587782 4.764472 -0.088387 -4.950883 14.762895 -14.838459 -0.183750 2.036468 44.430494 1.308057 2.623016 21.478394 0.582700 -0.000000 -49.956300 8.481603 -1.777913 3.334215 17.423058 3.341826 -29.096038 3.007962 -0.195047 24.899081 -1.990086 -1.294482 -23.594299 -178.788100 -0.000001 -17.483400
8.565230 16.861819 1.766975 14.151577 56.013786 30.863873 -11.501232 4.589129 -0.133746 -4.853349 14.343175 -15.931444 -0.098571 2.094825 46.014921 1.435587 4.512253 20.606825 1.378400 -0.000000 -48.036300 8.556880 -1.767490 3.247732 17.345690 3.051470 -27.559589 3.020000 -0.008028 23.370190 -1.989899 -1.375576 -23.442926 -178.778400 0.000000 -17.363000
8.701124 16.887265 1.900885 14.352714 55.894021 31.064359 -11.391716 4.411293 -0.149051 -4.878888 13.767560 -17.077628 -0.024615 2.142637 47.423869 1.549681 6.179714 19.666698 2.043599 0.000000 -46.282400 8.654991 -1.748977 3.205522 17.170907 2.918730 -26.049613 2.995968 0.184950 21.740078 -2.008108 -1.624856 -23.136849 -178.754500 -0.000000 -17.536700
8.836289 16.914952 2.037431 14.592573 55.741708 31.359256 -11.265719 4.234015 -0.133011 -5.003823 13.047897 -18.269104 0.038397 2.179484 48.649737 1.645074 7.565499 18.698231 2.556900 -0.000000 -44.742500 8.773116 -1.726127 3.201800 16.915358 2.935059 -24.597843 2.938554 0.371249 20.099208 -2.037235 -2.003086 -22.683803 -178.727000 0.000000 -17.883400
8.971178 16.944837 2.175586 14.847680 55.555101 31.724630 -11.128686 4.059389 -0.085513 -5.205728 12.202068 -19.499988 0.090691 2.205272 49.688565 1.718930 8.653804 17.733422 2.920600 -0.000000 -43.483500 8.907818 -1.703132 3.228705 16.597161 3.075318 -23.231669 2.854462 0.540734 18.520372 -2.067164 -2.454377 -22.092507 -178.709700 0.000000 -18.240300
9.106087 16.977015 2.314119 15.079476 55.333675 32.115028 -10.987353 3.887905 -0.012084 -5.448791 11.265251 -20.757816 0.131761 2.221949 50.544446 1.769795 9.454092 16.772125 3.146800 -0.000000 -42.386100 9.051463 -1.684648 3.275274 16.247216 3.307598 -21.952387 2.753838 0.687924 17.040703 -2.087726 -2.921898 -21.368298 -178.715499 0.000000 -18.454000
9.241173 17.011507 2.452049 15.258915 55.075024 32.491655 -10.846466 3.719584 0.081512 -5.706703 10.271194 -22.028111 0.161385 2.231105 51.218577 1.799977 10.009876 15.817847 3.261800 -0.000000 -41.474300 9.197899 -1.674081 3.328270 15.891941 3.585226 -20.754875 2.648130 0.810423 15.678219 -2.087958 -3.343668 -20.519798 -178.755300 0.000000 -18.413100
9.376404 17.048275 2.588639 15.363302 54.776612 32.818871 -10.709179 3.554062 0.187998 -5.959082 9.255305 -23.296040 0.179173 2.234673 51.716121 1.813444 10.379025 14.857385 3.293699 -0.000000 -40.664800 9.341916 -1.673633 3.375295 15.554349 3.862039 -19.623271 2.547667 0.909256 14.425892 -2.059132 -3.669532 -19.553916 -178.834300 -0.000001 -18.051900
9.511643 17.087088 2.723465 15.380737 54.433988 33.072313 -10.576389 3.391131 0.301078 -6.197445 8.245922 -24.546500 0.185088 2.233664 52.038848 1.816349 10.630971 13.886057 3.273301 -0.000000 -39.979100 9.481143 -1.684079 3.404877 15.248465 4.091307 -18.540331 2.460629 0.987016 13.266182 -1.994786 -3.859813 -18.479302 -178.952300 0.000000 -17.358700
9.646701 17.127540 2.856417 15.308671 54.042418 33.238269 -10.447168 3.230626 0.415339 -6.421137 7.264334 -25.767725 0.179177 2.228561 52.189254 1.815050 10.829999 12.898511 3.226100 0.000000 -39.408100 9.615178 -1.705000 3.409843 14.980191 4.241401 -17.488108 2.391294 1.047402 12.171905 -1.893271 -3.898277 -17.302595 -179.103301 -0.000000 -16.348300
9.781412 17.168964 2.987646 15.152655 53.596161 33.314779 -10.318957 3.073059 0.526959 -6.637461 6.323900 -26.951939 0.161183 2.219387 52.171817 1.814423 11.022889 11.879162 3.167300 0.000000 -38.810100 9.745939 -1.735323 3.387020 14.746042 4.293503 -16.455080 2.340512 1.093494 11.120916 -1.756822 -3.785797 -16.032224 -179.277001 -0.000000 -15.062700
9.915640 17.210627 3.117489 14.923415 53.090441 33.309609 -10.188519 2.919002 0.634850 -6.855940 5.426707 -28.094165 0.131365 2.205063 51.985414 1.818853 11.241418 10.836440 3.107900 0.000001 -38.220200 9.876135 -1.773337 3.337624 14.536548 4.246855 -15.437032 2.306066 1.127627 10.098112 -1.591622 -3.540702 -14.678133 -179.461200 -0.000001 -13.565200
10.049429 17.251596 3.246380 14.633853 52.521511 33.237034 -10.052608 2.769517 0.739711 -7.085033 4.569384 -29.193994 0.089526 2.184492 51.631526 1.829738 11.489948 9.768924 3.047600 0.000000 -37.544200 10.008495 -1.817387 3.266962 14.338905 4.116610 -14.437790 2.283821 1.150972 9.100720 -1.406403 -3.191783 -13.254569 -179.643500 -0.000000 -11.934100
10.182965 17.291015 3.374799 14.295418 51.887931 33.114443 -9.908872 2.625623 0.844376 -7.328386 3.742559 -30.253705 0.035801 2.156206 51.107709 1.846946 11.756194 8.692766 2.983700 0.000001 -36.825601 10.144432 -1.865915 3.183144 14.141204 3.932016 -13.467197 2.268828 1.163810 8.137135 -1.211099 -2.773619 -11.778594 -179.813200 0.000000 -10.258300
10.316573 17.328055 3.503112 13.916707 51.192158 32.957245 -9.756119 2.488395 0.951652 -7.582826 2.938834 -31.277352 -0.030370 2.119477 50.416650 1.867287 12.006852 7.607791 2.905800 0.000000 -35.961400 10.283717 -1.917822 3.095819 13.934851 3.732002 -12.535627 2.256238 1.165755 7.223896 -1.015405 -2.321098 -10.270042 -179.962200 -0.000000 -8.622500
10.450679 17.362059 3.631664 13.504042 50.439391 32.779734 -9.594561 2.358787 1.065082 -7.840785 2.151640 -32.270104 -0.109308 2.073665 49.559519 1.886978 12.206444 6.526227 2.807500 -0.000001 -34.985401 10.424550 -1.972440 3.014205 13.715319 3.555707 -11.656432 2.242243 1.155761 6.386029 -0.826877 -1.861678 -8.748109 179.913700 -0.000000 -7.084400
10.585843 17.392593 3.760630 13.061131 49.639023 32.593132 -9.425842 2.237473 1.187956 -8.091476 1.379226 -33.238624 -0.201298 2.018484 48.538424 1.902120 12.323540 5.462606 2.685800 0.000000 -34.003200 10.563440 -2.029600 2.946578 13.483227 3.439227 -10.841840 2.224393 1.132828 5.650682 -0.650722 -1.414386 -7.231165 179.816100 0.000000 -5.679400
10.722611 17.419413 3.890138 12.590396 48.803654 32.403608 -9.252369 2.124972 1.321268 -8.324588 0.629658 -34.188435 -0.307402 1.954339 47.360706 1.908962 12.332960 4.414461 2.538300 0.000000 -33.031600 10.696355 -2.089639 2.898649 13.243099 3.409274 -10.099513 2.201381 1.095869 5.043174 -0.489554 -0.989489 -5.731391 179.744400 0.000000 -4.384800
10.861441 17.442490 4.020335 12.095358 47.948069 32.215261 -9.076937 2.021662 1.464703 -8.534925 -0.081876 -35.125023 -0.428813 1.881598 46.032407 1.905738 12.226489 3.382525 2.367899 0.000000 -32.179500 10.819391 -2.153238 2.873314 13.001426 3.478968 -9.433919 2.172845 1.044013 4.584112 -0.343649 -0.588559 -4.253246 179.697000 0.000001 -3.118300
11.002761 17.461975 4.151358 11.580779 47.089427 32.030397 -8.902176 1.927901 1.616250 -8.725281 -0.732974 -36.053234 -0.567250 1.800510 44.560541 1.892764 12.011010 2.359263 2.179501 0.000000 -31.533400 10.929307 -2.221298 2.870931 12.766073 3.647397 -8.846527 2.139151 0.977025 4.286696 -0.211973 -0.207339 -2.797122 179.672400 0.000000 -1.777900
11.146819 17.478101 4.283381 11.053102 46.245753 31.849755 -8.730169 1.844196 1.773011 -8.908502 -1.298190 -36.976100 -0.724544 1.710717 42.948082 1.872727 11.708517 1.340638 1.980700 -0.000000 -31.244799 11.023916 -2.294590 2.889464 12.544726 3.899793 -8.335935 2.101140 0.895629 4.155004 -0.092920 0.161928 -1.362992 179.670000 0.000000 -0.280000
11.293775 17.491107 4.416636 10.520271 45.434288 31.673271 -8.561925 1.771424 1.930481 -9.108170 -1.749159 -37.894595 -0.904168 1.611520 41.198793 1.849194 11.342083 0.301395 1.774200 -0.000000 -31.270000 11.102590 -2.374317 2.925048 12.344096 4.211471 -7.895956 2.059063 0.800750 4.181078 0.015005 0.523051 0.065487 -0.311100 0.000000 -1.570400
11.443613 17.501153 4.551409 9.991859 44.671794 31.500576 -8.397795 1.710993 2.085177 -9.355842 -2.063394 -38.804060 -1.108492 1.500691 39.304306 1.826867 10.942290 -0.751373 1.568600 0.000000 -31.795600 11.165697 -2.460591 2.972387 12.169343 4.548629 -7.518338 2.014025 0.695358 4.349799 0.112547 0.882162 1.479510 -0.270300 -0.000000 -3.726400
11.596289 17.508288 4.687943 9.476032 43.972171 31.328406 -8.237343 1.664831 2.232568 -9.688940 -2.220600 -39.694879 -1.341357 1.375500 37.256163 1.808490 10.524124 -1.821576 1.366201 0.000000 -32.830100 11.214615 -2.553973 3.025739 12.024540 4.877654 -7.188745 1.966175 0.582095 4.636236 0.199644 1.235974 2.887483 -0.208700 -0.000001 -6.277100
11.751607 17.512296 4.826417 8.979468 43.345947 31.150016 -8.080233 1.635050 2.367652 -10.146199 -2.204352 -40.551351 -1.607063 1.232585 35.046311 1.793408 10.082724 -2.905433 1.167000 -0.000000 -34.303200 11.250640 -2.654367 3.079019 11.913234 5.166150 -6.888156 1.916312 0.464492 5.012149 0.275681 1.580212 4.280740 -0.128000 0.000000 -9.160200
11.909505 17.512707 4.966889 8.504966 42.800542 30.954927 -7.926886 1.623617 2.485053 -10.762113 -2.004033 -41.352771 -1.908612 1.068520 32.670752 1.776223 9.594252 -3.970805 0.974300 0.000000 -36.218200 11.274921 -2.761192 3.126179 11.838058 5.386948 -6.593436 1.865884 0.346172 5.451431 0.340084 1.910960 5.635477 -0.030600 0.000000 -12.190100
12.069909 17.508770 5.109235 8.048161 42.335889 30.727445 -7.778892 1.631057 2.577214 -11.560967 -1.610158 -42.083392 -2.249671 0.882047 30.157263 1.745210 8.998855 -5.013100 0.783500 -0.000001 -38.136100 11.287175 -2.876131 3.164955 11.803488 5.536731 -6.274137 1.813219 0.227551 5.916456 0.390956 2.201811 7.004177 0.075700 0.000000 -15.802900
